HIERARCHY
ROOT Hips
{
	OFFSET 0.000000 0.000000 0.000000
	CHANNELS 6 Xposition Yposition Zposition Xrotation Yrotation Zrotation
	JOINT LeftUpLeg_virtual
	{
		OFFSET 0.000000 0.000000 0.000000
		CHANNELS 3 Xrotation Yrotation Zrotation
		JOINT LeftUpLeg
		{
			OFFSET 15.427100 -6.655098 0.678600
			CHANNELS 3 Xrotation Yrotation Zrotation
			JOINT LeftLeg
			{
				OFFSET 4.081073 -39.591068 13.024000
				CHANNELS 3 Xrotation Yrotation Zrotation
				JOINT LeftFoot
				{
					OFFSET -4.081074 -37.707932 -15.979700
					CHANNELS 3 Xrotation Yrotation Zrotation
					JOINT LeftToeBase
					{
						OFFSET 5.346399 -15.068900 20.645000
						CHANNELS 3 Xrotation Yrotation Zrotation
						JOINT LeftToe_End
						{
							OFFSET 2.754700 0.931300 11.300900
							CHANNELS 3 Xrotation Yrotation Zrotation
							End Site
							{
								OFFSET 0 0 0
							}
						}
					}
				}
			}
		}
	}
	JOINT RightUpLeg_virtual
	{
		OFFSET 0.000000 0.000000 0.000000
		CHANNELS 3 Xrotation Yrotation Zrotation
		JOINT RightUpLeg
		{
			OFFSET -15.569500 -6.655098 0.678600
			CHANNELS 3 Xrotation Yrotation Zrotation
			JOINT RightLeg
			{
				OFFSET -4.081825 -39.591045 13.023800
				CHANNELS 3 Xrotation Yrotation Zrotation
				JOINT RightFoot
				{
					OFFSET 4.081824 -37.707954 -15.979600
					CHANNELS 3 Xrotation Yrotation Zrotation
					JOINT RightToeBase
					{
						OFFSET -5.346400 -15.068900 20.645000
						CHANNELS 3 Xrotation Yrotation Zrotation
						JOINT RightToe_End
						{
							OFFSET -2.754700 0.931300 11.300900
							CHANNELS 3 Xrotation Yrotation Zrotation
							End Site
							{
								OFFSET 0 0 0
							}
						}
					}
				}
			}
		}
	}
	JOINT Spine_virtual
	{
		OFFSET 0.000000 0.000000 0.000000
		CHANNELS 3 Xrotation Yrotation Zrotation
		JOINT Spine
		{
			OFFSET -0.279200 12.230698 -2.892100
			CHANNELS 3 Xrotation Yrotation Zrotation
			JOINT Spine1
			{
				OFFSET -0.232667 10.192268 -1.242267
				CHANNELS 3 Xrotation Yrotation Zrotation
				JOINT Spine1_split
				{
					OFFSET -0.232667 10.192268 -1.242267
					CHANNELS 3 Xrotation Yrotation Zrotation
					JOINT Spine2
					{
						OFFSET -0.232667 10.192268 -1.242267
						CHANNELS 3 Xrotation Yrotation Zrotation
						JOINT Neck_virtual
						{
							OFFSET 0.000000 0.000000 0.000000
							CHANNELS 3 Xrotation Yrotation Zrotation
							JOINT Neck
							{
								OFFSET -0.418800 17.814194 8.416900
								CHANNELS 3 Xrotation Yrotation Zrotation
								JOINT Head
								{
									OFFSET 0.000000 7.031097 3.806800
									CHANNELS 3 Xrotation Yrotation Zrotation
									JOINT HeadTop_End
									{
										OFFSET 0.000000 24.646606 12.978600
										CHANNELS 3 Xrotation Yrotation Zrotation
										End Site
										{
											OFFSET 0 0 0
										}
									}
								}
							}
						}
						JOINT LeftShoulder_virtual
						{
							OFFSET 0.000000 0.000000 0.000000
							CHANNELS 3 Xrotation Yrotation Zrotation
							JOINT LeftShoulder
							{
								OFFSET 8.476499 7.247704 -3.868750
								CHANNELS 3 Xrotation Yrotation Zrotation
								JOINT LeftShoulder_split
								{
									OFFSET 8.476499 7.247704 -3.868750
									CHANNELS 3 Xrotation Yrotation Zrotation
									JOINT LeftArm
									{
										OFFSET 9.308998 -2.777710 0.208600
										CHANNELS 3 Xrotation Yrotation Zrotation
										JOINT LeftForeArm
										{
											OFFSET 29.972298 0.000000 0.000000
											CHANNELS 3 Xrotation Yrotation Zrotation
											JOINT LeftHand
											{
												OFFSET 26.026505 0.000000 0.000000
												CHANNELS 3 Xrotation Yrotation Zrotation
												End Site
												{
													OFFSET 0 0 0
												}
											}
										}
									}
								}
							}
						}
						JOINT RightShoulder_virtual
						{
							OFFSET 0.000000 0.000000 0.000000
							CHANNELS 3 Xrotation Yrotation Zrotation
							JOINT RightShoulder
							{
								OFFSET -7.570500 7.247704 -3.868750
								CHANNELS 3 Xrotation Yrotation Zrotation
								JOINT RightShoulder_split
								{
									OFFSET -7.570500 7.247704 -3.868750
									CHANNELS 3 Xrotation Yrotation Zrotation
									JOINT RightArm
									{
										OFFSET -9.308998 -2.777710 0.208500
										CHANNELS 3 Xrotation Yrotation Zrotation
										JOINT RightForeArm
										{
											OFFSET -29.972300 0.000000 0.000000
											CHANNELS 3 Xrotation Yrotation Zrotation
											JOINT RightHand
											{
												OFFSET -26.026505 0.000000 0.000000
												CHANNELS 3 Xrotation Yrotation Zrotation
												End Site
												{
													OFFSET 0 0 0
												}
											}
										}
									}
								}
							}
						}
					}
				}
			}
		}
	}
}
MOTION
Frames: 7
Frame Time: 0.03333333
9.565293 89.337540 13.642036 0.000000 0.000000 0.000000 -0.889579 8.879915 -4.821760 5.382228 9.806916 11.278722 15.213650 -5.795246 -2.516847 -22.861149 3.022742 -1.217866 -1.517164 -0.940124 -1.124121 0.000000 0.000000 0.000000 -0.203302 7.072687 -5.126290 -24.443191 -6.916942 -2.845032 29.221209 1.600870 3.871037 -5.178991 2.463582 7.412671 3.464419 1.117640 0.768441 0.000000 0.000000 0.000000 -0.226068 7.336617 -5.004886 11.748946 -1.475749 3.211379 0.804371 -1.737563 0.900412 0.803956 -0.988316 0.498271 0.000000 0.000000 0.000000 -2.942670 -1.420482 1.036339 -0.857660 -0.193188 5.308376 -3.888113 0.020853 -4.593032 0.000000 0.000000 0.000000 -3.136057 -1.597986 1.009156 0.828063 -0.970768 -3.046515 -1.402042 -0.569149 -0.128883 -0.933130 -10.399984 -74.761475 10.351089 -12.855853 -3.308236 0.000000 0.000000 0.000000 -3.226201 -1.910954 0.954148 2.492841 -0.419392 8.173688 -2.563671 1.072797 -1.748604 2.130503 10.907902 71.241236 11.181794 19.294782 3.139530 0.000000 0.000000 0.000000 
9.700391 89.666580 15.515030 0.000000 0.000000 0.000000 -0.464471 9.560537 -5.341235 6.784670 9.530405 11.171525 14.159578 -6.134493 -2.209459 -22.831912 3.441588 -1.879253 -2.536632 -1.022171 -1.344287 0.000000 0.000000 0.000000 0.271588 7.600321 -5.681844 -24.244665 -6.392902 -1.186404 24.225539 2.918731 3.668408 -5.451524 2.832043 7.887187 5.313544 0.355911 0.597724 0.000000 0.000000 0.000000 0.249455 7.712118 -5.446951 11.701209 -1.632886 3.662405 0.535881 -1.918331 1.005772 0.755983 -0.898336 0.475413 0.000000 0.000000 0.000000 -3.102287 -1.561402 1.145139 -1.049693 -0.336559 5.121536 -4.133461 -0.162216 -5.275620 0.000000 0.000000 0.000000 -3.328785 -1.714271 1.010247 0.837864 -1.074225 -2.993540 -1.340458 -0.316399 0.002753 -1.292601 -10.901921 -74.663407 10.549164 -13.386831 -3.683077 0.000000 0.000000 0.000000 -3.282155 -1.983845 1.065987 2.601168 -1.127393 8.140348 -2.618982 0.861844 -2.004363 2.197812 11.375935 71.165005 10.866181 18.773215 4.020380 0.000000 0.000000 0.000000 
9.808485 89.925713 17.574718 0.000000 0.000000 0.000000 -0.123334 10.117817 -5.784013 8.145764 8.869083 11.377801 13.385468 -6.298733 -1.875786 -22.448429 4.315828 -2.476225 -3.124507 -1.045517 -1.868866 0.000000 0.000000 0.000000 0.564389 8.384340 -6.194349 -24.209872 -5.685676 -0.226203 20.319345 4.348088 3.601849 -5.101199 3.316649 8.011653 5.776455 -0.455622 0.462873 0.000000 0.000000 0.000000 0.630713 8.048630 -5.854733 11.901252 -1.923918 3.963420 0.244093 -2.183989 1.241855 0.538515 -0.637157 0.450911 0.000000 0.000000 0.000000 -3.293358 -1.806274 1.386454 -1.424156 -0.455104 4.760995 -4.483676 -0.469222 -5.855791 0.000000 0.000000 0.000000 -3.568595 -1.920751 1.153560 0.833728 -1.247068 -3.223202 -1.352439 0.084083 -0.019040 -1.358796 -11.532777 -74.362141 10.662658 -13.761914 -4.104144 0.000000 0.000000 0.000000 -3.422321 -2.161247 1.287562 2.679473 -1.746519 7.903237 -2.614434 0.807438 -2.195768 2.408963 11.975624 71.394875 10.467526 18.643466 4.637399 0.000000 0.000000 0.000000 
9.851675 89.965431 19.729916 0.000000 0.000000 0.000000 0.010895 10.556395 -6.151865 9.635480 8.137642 11.947498 12.790282 -6.206666 -1.524010 -22.350828 5.533775 -2.988913 -3.024130 -1.037084 -2.456234 0.000000 0.000000 0.000000 0.679261 9.300144 -6.621735 -24.472727 -5.024797 0.028279 17.613152 5.493064 3.681317 -4.591803 3.664846 7.292821 6.072361 -1.178132 0.385512 0.000000 0.000000 0.000000 0.856813 8.241527 -6.212704 12.305947 -2.253638 4.118384 -0.051592 -2.488448 1.540375 0.416420 -0.213512 0.377762 0.000000 0.000000 0.000000 -3.473014 -2.110829 1.678496 -2.001599 -0.583488 4.362879 -4.949684 -0.871167 -6.295587 0.000000 0.000000 0.000000 -3.818470 -2.182218 1.383357 0.815572 -1.425986 -3.651281 -1.417057 0.431547 -0.044971 -1.228444 -12.289964 -73.905741 10.688988 -14.182490 -4.515188 0.000000 0.000000 0.000000 -3.602155 -2.411903 1.544917 2.709527 -2.271344 7.541616 -2.547350 0.871241 -2.233587 2.717509 12.611378 71.870946 9.992265 18.843076 5.040435 0.000000 0.000000 0.000000 
9.782322 89.677513 22.164387 0.000000 0.000000 0.000000 -0.029250 11.049368 -6.423647 11.129473 7.761738 12.820105 12.167762 -5.904794 -1.237274 -22.978527 6.716980 -3.738158 -2.949859 -1.131537 -2.539884 0.000000 0.000000 0.000000 0.718294 10.147285 -6.931922 -24.990153 -4.605010 -0.247970 16.390036 6.192946 3.904360 -3.907045 3.746038 5.804270 6.555326 -1.661949 0.343269 0.000000 0.000000 0.000000 0.875584 8.313769 -6.431549 12.847413 -2.537528 4.174449 -0.334744 -2.767230 1.817512 0.359609 0.446414 0.219956 0.000000 0.000000 0.000000 -3.626054 -2.407941 1.927367 -2.735741 -0.718752 4.057338 -5.470273 -1.299781 -6.591772 0.000000 0.000000 0.000000 -4.037033 -2.430972 1.609975 0.793551 -1.528871 -4.176028 -1.490269 0.456041 -0.054524 -1.038799 -13.082847 -73.392158 10.653025 -14.807468 -4.866046 0.000000 0.000000 0.000000 -3.763364 -2.657154 1.749735 2.709327 -2.718905 7.174449 -2.410357 1.031766 -2.083125 2.989803 13.123853 72.462433 9.468337 19.224922 5.306987 0.000000 0.000000 0.000000 
9.508222 89.096512 24.813126 0.000000 0.000000 0.000000 -0.109906 11.655703 -6.537450 12.450113 7.849783 13.791535 11.786199 -5.620878 -1.043802 -23.738594 7.432883 -5.310427 -4.220413 -1.417330 -1.623361 0.000000 0.000000 0.000000 0.723654 11.070832 -7.073541 -25.654675 -4.502480 -0.813261 16.514716 6.436305 4.255413 -2.678917 3.557539 3.995393 6.737927 -1.844416 0.277707 0.000000 0.000000 0.000000 0.739475 8.446499 -6.468274 13.415242 -2.706404 4.162767 -0.601652 -2.974110 1.997754 0.457683 1.027097 0.089828 0.000000 0.000000 0.000000 -3.755239 -2.628503 2.056863 -3.526923 -0.875651 3.907088 -5.999517 -1.685868 -6.729318 0.000000 0.000000 0.000000 -4.226609 -2.600941 1.768691 0.773800 -1.461438 -4.669453 -1.565212 0.119630 0.021736 -0.928787 -13.736680 -72.929529 10.599532 -15.695350 -5.117232 0.000000 0.000000 0.000000 -3.884711 -2.840350 1.827973 2.694159 -3.073945 6.881434 -2.275672 1.145019 -1.747339 3.077002 13.476768 73.062103 8.920810 19.615347 5.493216 0.000000 0.000000 0.000000 
9.018087 88.354309 27.664635 0.000000 0.000000 0.000000 -0.286515 12.463900 -6.452285 13.148963 8.339056 14.866192 12.368064 -5.906708 -0.910941 -23.341874 7.585860 -8.536166 -7.049625 -1.922067 0.349519 0.000000 0.000000 0.000000 0.835185 11.986459 -7.011292 -26.501001 -4.701733 -1.361629 17.563039 6.497622 4.736156 -0.805805 3.179855 2.472844 6.455797 -1.755439 0.181997 0.000000 0.000000 0.000000 0.437407 8.853410 -6.310910 13.934874 -2.748604 4.116941 -0.871533 -3.083856 2.033747 0.745948 1.414163 0.071767 0.000000 0.000000 0.000000 -3.880156 -2.740980 2.049115 -4.303736 -1.056424 3.930693 -6.456715 -1.969240 -6.757736 0.000000 0.000000 0.000000 -4.417535 -2.661699 1.809872 0.776274 -1.215459 -5.037563 -1.566053 -0.466445 0.329183 -0.988052 -14.026656 -72.631385 10.526047 -16.698028 -5.278021 0.000000 0.000000 0.000000 -3.937294 -2.930196 1.759190 2.706904 -3.342168 6.708835 -2.182511 1.142306 -1.273309 2.872390 13.633799 73.548823 8.384452 19.993494 5.629638 0.000000 0.000000 0.000000 
